<svg height="512" viewBox="0 0 64 64" width="512" xmlns="http://www.w3.org/2000/svg"><g id="car_service-car_repair_center-auto_repair_center-car-repair" data-name="car service-car repair center-auto repair center-car-repair"><path d="m7 26h50v31h-50z" fill="#fee9ab"/><path d="m53 26h4v31h-4z" fill="#ffd422"/><path d="m61 59a2.015 2.015 0 0 1 -2 2h-54a2.006 2.006 0 0 1 -2-2 2.015 2.015 0 0 1 2-2h54a2.006 2.006 0 0 1 2 2z" fill="#898890"/><path d="m61 59a2.015 2.015 0 0 1 -2 2h-4a2.015 2.015 0 0 0 2-2 2.006 2.006 0 0 0 -2-2h4a2.006 2.006 0 0 1 2 2z" fill="#57565c"/><path d="m58.25 14.72 1.75 12.28a4 4 0 1 1 -8 0v-14h4.27a2.01 2.01 0 0 1 1.98 1.72z" fill="#ff3051"/><path d="m60 27a3.994 3.994 0 0 1 -6 3.46 4.225 4.225 0 0 0 .83-.63 4.025 4.025 0 0 0 1.17-2.83l-1.75-12.28a2.01 2.01 0 0 0 -1.98-1.72h4a2.01 2.01 0 0 1 1.98 1.72z" fill="#cd2a00"/><rect fill="#46f8ff" height="18" rx="2" width="20" x="32" y="35"/><path d="m52 37v14a2.006 2.006 0 0 1 -2 2h-4a2.006 2.006 0 0 0 2-2v-14a2.006 2.006 0 0 0 -2-2h4a2.006 2.006 0 0 1 2 2z" fill="#00d7df"/><rect fill="#ebe5dd" height="22" rx="2" width="32" x="16" y="3"/><path d="m48 5v18a2.006 2.006 0 0 1 -2 2h-4a2.006 2.006 0 0 0 2-2v-18a2.006 2.006 0 0 0 -2-2h4a2.006 2.006 0 0 1 2 2z" fill="#c0ab91"/><path d="m26 42v15h-14v-15a7 7 0 1 1 14 0z" fill="#a78966"/><path d="m26 42v15h-4v-15a7 7 0 0 0 -5-6.71 7 7 0 0 1 9 6.71z" fill="#806749"/><path d="m52 13v14a4 4 0 1 1 -8 0v-2h2a2.006 2.006 0 0 0 2-2v-10z" fill="#ff3051"/><path d="m44 25v2a4 4 0 1 1 -8 0v-2z" fill="#ff3051"/><path d="m44 15v4h-4a2 2 0 0 0 -4 0h-4v-6h10a2.006 2.006 0 0 1 2 2z" fill="#ffeb99"/><path d="m40 9v4h-8v-6h6a2.006 2.006 0 0 1 2 2z" fill="#46f8ff"/><circle cx="38" cy="19" fill="#787680" r="2"/><path d="m36 25v2a4 4 0 1 1 -8 0v-2z" fill="#ff3051"/><path d="m28 7.35a5.99 5.99 0 0 1 0 11.3v6.35h-4v-6.35a5.99 5.99 0 0 1 0-11.3v5.65h4z" fill="#acabb1"/><g fill="#ff3051"><path d="m28 25v2a4 4 0 1 1 -8 0v-2z"/><path d="m20 25v2a4 4 0 1 1 -8 0v-14h4v10a2.006 2.006 0 0 0 2 2z"/><path d="m12 13v14a4 4 0 1 1 -8 0l1.75-12.28a2.01 2.01 0 0 1 1.98-1.72z"/></g><path d="m34 54h16a3 3 0 0 0 3-3v-14a3 3 0 0 0 -3-3h-16a3 3 0 0 0 -3 3v14a3 3 0 0 0 3 3zm-1-17a1 1 0 0 1 1-1h16a1 1 0 0 1 1 1v14a1 1 0 0 1 -1 1h-16a1 1 0 0 1 -1-1z"/><path d="m47 43h2v-4a1 1 0 0 0 -1-1h-4v2h3z"/><path d="m22 47h2v2h-2z"/><path d="m59 56h-2v-24.1a5.017 5.017 0 0 0 4-4.9.66.66 0 0 0 -.01-.14l-1.75-12.28a3.02 3.02 0 0 0 -2.97-2.58h-7.27v-7a3.009 3.009 0 0 0 -3-3h-28a3.009 3.009 0 0 0 -3 3v7h-7.27a3.02 3.02 0 0 0 -2.97 2.58l-1.75 12.28a.66.66 0 0 0 -.01.14 5.017 5.017 0 0 0 4 4.9v24.1h-2a3 3 0 0 0 0 6h54a3 3 0 0 0 0-6zm-6-42h3.27a.991.991 0 0 1 .98.86l1.75 12.21a3 3 0 0 1 -6-.07zm-4 9v-9h2v13a3 3 0 0 1 -6 0v-1h1a3.009 3.009 0 0 0 3-3zm-32-18a1 1 0 0 1 1-1h28a1 1 0 0 1 1 1v18a1 1 0 0 1 -1 1h-17v-4.68a6.919 6.919 0 0 0 2-1.46v1.14a1 1 0 0 0 1 1h3.18a2.988 2.988 0 0 0 5.64 0h3.18a1 1 0 0 0 1-1v-4a3.009 3.009 0 0 0 -3-3h-1v-3a3.009 3.009 0 0 0 -3-3h-6a1 1 0 0 0 -1 1v1.1a6.884 6.884 0 0 0 -2.67-1.69 1.01 1.01 0 0 0 -.91.12 1.028 1.028 0 0 0 -.42.82v4.65h-2v-4.65a1.028 1.028 0 0 0 -.42-.82 1.01 1.01 0 0 0 -.91-.12 6.989 6.989 0 0 0 -.67 12.91v4.68h-5a1 1 0 0 1 -1-1zm26 21v1a3 3 0 0 1 -6 0v-1zm-18-2v-5.35a1 1 0 0 0 -.67-.94 5 5 0 0 1 -1.33-8.71v4a1 1 0 0 0 1 1h4a1 1 0 0 0 1-1v-4a5 5 0 0 1 -1.33 8.71 1 1 0 0 0 -.67.94v5.35zm2 2v1a3 3 0 0 1 -6 0v-1zm2 0h6v1a3 3 0 0 1 -6 0zm13-12a1 1 0 0 1 1 1v3h-2.18a2.988 2.988 0 0 0 -5.64 0h-2.18v-4zm-9-2v-4h5a1 1 0 0 1 1 1v3zm6 7a1 1 0 1 1 -1-1 1 1 0 0 1 1 1zm-26-5h2v9a3.009 3.009 0 0 0 3 3h1v1a3 3 0 0 1 -6 0zm-1 16a5 5 0 0 0 8 0 5 5 0 0 0 8 0 5 5 0 0 0 8 0 5 5 0 0 0 8 0 5 5 0 0 0 8 0 4.994 4.994 0 0 0 3 1.89v24.11h-28v-14a8 8 0 0 0 -16 0v14h-2v-24.11a4.994 4.994 0 0 0 3-1.89zm13 12v14h-12v-14a6 6 0 0 1 12 0zm-20-14.93 1.75-12.21a.991.991 0 0 1 .98-.86h3.27v13a3 3 0 0 1 -6 .07zm54 32.93h-54a1 1 0 0 1 0-2h54a1 1 0 0 1 0 2z"/></g></svg>